<?xml version="1.0" encoding="UTF-8" standalone="no"?>
<svg
   xmlns:dc="http://purl.org/dc/elements/1.1/"
   xmlns:cc="http://creativecommons.org/ns#"
   xmlns:rdf="http://www.w3.org/1999/02/22-rdf-syntax-ns#"
   xmlns:svg="http://www.w3.org/2000/svg"
   xmlns="http://www.w3.org/2000/svg"
   xmlns:sodipodi="http://sodipodi.sourceforge.net/DTD/sodipodi-0.dtd"
   xmlns:inkscape="http://www.inkscape.org/namespaces/inkscape"
   id="bg"
   viewBox="0 0 1140 360"
   version="1.1"
   sodipodi:docname="banner3.svg"
   inkscape:version="0.92.2 (5c3e80d, 2017-08-06)">
  <metadata
     id="metadata4550">
    <rdf:RDF>
      <cc:Work
         rdf:about="">
        <dc:format>image/svg+xml</dc:format>
        <dc:type
           rdf:resource="http://purl.org/dc/dcmitype/StillImage" />
      </cc:Work>
    </rdf:RDF>
  </metadata>
  <sodipodi:namedview
     pagecolor="#ffffff"
     bordercolor="#666666"
     borderopacity="1"
     objecttolerance="10"
     gridtolerance="10"
     guidetolerance="10"
     inkscape:pageopacity="0"
     inkscape:pageshadow="2"
     inkscape:window-width="1920"
     inkscape:window-height="1017"
     id="namedview4548"
     showgrid="false"
     inkscape:zoom="0.25175439"
     inkscape:cx="570"
     inkscape:cy="180"
     inkscape:window-x="-8"
     inkscape:window-y="-8"
     inkscape:window-maximized="1"
     inkscape:current-layer="bg" />
  <defs
     id="defs4539">
    <style
       id="style4537">.cls-1{fill:#7fba00;}.cls-2{fill:#fff;}</style>
  </defs>
  <title
     id="title4541">banner3b</title>
  <path
     class="cls-1"
     d="M0,0H1140V360H0V0Z"
     id="path4543" />
  <path
     style="fill:#c87137"
     id="path4560"
     d="m 131.42028,175.82903 c 12.87567,0.11321 25.65841,-0.3581 38.42509,1.47231 8.08828,2.69974 16.24813,4.83547 24.71917,5.82715 8.6879,0.23089 16.67325,3.63013 24.86502,6.08605 6.20772,3.35731 12.97792,5.33171 19.64512,7.53474 8.41087,2.08778 17.08797,2.53852 25.71219,2.83043 8.53492,0.17747 17.07292,0.14426 25.60929,0.13925 9.96672,1.31952 18.77762,-2.35123 28.16167,-4.85128 9.66958,-2.06434 19.54069,-2.72184 29.39669,-3.06841 7.94718,0.90911 14.62432,-1.74138 21.8073,-4.50573 7.19589,-2.37853 14.93992,-3.64787 21.76243,-6.98692 6.67068,-3.61683 14.46552,-2.77442 21.26003,-5.68494 9.41236,-4.80859 19.46585,-7.84635 29.85,-9.60086 9.20406,-1.2613 18.52251,-1.15755 27.79259,-1.19474 8.03962,-0.44602 16.00448,0.83257 23.53777,3.63271 8.7884,2.34337 15.5292,8.54555 22.80311,13.62046 7.39387,5.32885 13.88143,11.55831 21.37466,16.75226 6.9688,3.43866 14.04712,6.56757 20.99595,10.0617 6.5022,3.17874 13.83031,2.73833 20.69878,4.38278 7.64313,1.95409 15.4952,2.63947 23.34719,3.03545 7.8344,-0.0362 15.81763,1.06483 23.536,-0.49325 1.22745,-0.50116 2.44612,-1.02437 3.68235,-1.50347 2.78308,-1.07858 10.63677,-5.41323 8.04103,-3.93979 -82.17053,46.64297 -53.57696,31.75663 -36.48979,20.09201 22.67937,-17.56206 48.2326,-30.77991 73.25766,-44.70844 -104.11918,64.77846 -12.38122,-1.49499 25.14293,-10.90467 7.09958,-2.88306 14.24332,-5.2357 21.14996,-8.5446 7.67661,-3.44175 15.9886,-4.49266 24.28926,-5.10179 10.26667,-0.39643 20.54382,-0.29222 30.81575,-0.28127 9.97422,1.44042 20.30653,3.83967 29.09865,8.91689 7.74337,3.98757 13.73341,10.37627 21.24272,14.71039 7.39993,5.37387 14.25725,11.36526 22.36158,15.68205 6.95601,3.93972 12.66544,9.73375 19.68894,13.51131 7.07826,4.88443 15.5458,5.58775 23.86272,6.30642 9.20222,0.62164 18.43088,0.57369 27.64868,0.54966 7.80434,-0.55106 15.91321,1.0134 23.54407,-0.89498 8.18837,-1.99651 15.42072,-6.61283 23.00471,-10.14942 -15.63334,8.93232 -31.23163,17.92635 -46.9001,26.79696 -1.2213,0.69143 2.38969,-1.47376 3.55427,-2.25696 3.45726,-2.32507 6.72076,-5.15764 10.341,-7.22646 18.18112,-10.38977 36.47833,-20.57498 54.71753,-30.86248 2.3193,-1.74797 5.2172,-2.29432 7.7259,-3.63998 1.1146,-0.5979 4.24655,-2.74523 3.1467,-2.12063 -78.97708,44.84865 -58.40615,35.03098 -41.31171,22.98652 2.57641,-2.04067 5.10151,-4.0978 7.51181,-6.33077 0,0 54.84245,-22.18215 54.84245,-22.18215 v 0 c -2.6705,2.05365 -4.6631,4.62886 -7.543,6.41685 -2.97,2.83933 -2.2831,2.50181 -5.8585,4.62504 -21.78225,12.93516 -41.90395,26.77305 -64.71649,36.8983 15.49987,-9.05334 31.00384,-18.09972 46.49964,-27.16003 1.198,-0.70047 -2.4444,1.3215 -3.6062,2.08052 -3.4826,2.27516 -6.6934,5.45758 -10.2461,7.54893 -17.97616,10.58164 -36.17036,20.78833 -54.25551,31.18249 -7.71899,3.82174 -15.54591,7.88327 -24.24356,8.78896 -7.97921,0.31167 -15.96949,0.11836 -23.9533,0.17739 -9.31445,-0.0541 -18.64635,-0.14995 -27.91953,-1.12403 -9.04452,-1.16396 -17.82986,-2.97677 -25.46716,-8.28288 -6.62771,-4.29745 -12.58767,-9.57761 -19.47291,-13.50573 -7.89138,-4.74835 -14.9696,-10.59638 -22.53115,-15.82876 -7.11162,-4.65917 -13.35901,-10.56658 -21.02984,-14.369 -8.49552,-3.98607 -17.95715,-6.30479 -27.32924,-6.66534 -10.2124,0.0131 -20.45595,-0.0727 -30.6331,0.88716 -8.03847,1.05409 -15.85629,2.94872 -23.16926,6.5681 -7.10039,2.85103 -14.21259,5.66615 -21.54266,7.89636 -4.53325,1.54463 -8.81923,3.26023 -13.06994,5.48605 -1.40303,0.73467 -5.52985,3.09002 -4.16139,2.29281 2.39637,-1.39603 134.53406,-78.00695 -7.17081,4.21933 -18.14819,10.18069 -20.04071,11.2678 43.54666,-25.47774 1.22909,-0.71026 -2.41901,1.49078 -3.57193,2.31898 -8.48248,6.09344 1.2843,-0.17216 -8.17824,5.67868 -1.53617,1.04806 -2.98173,2.22313 -4.47259,3.3347 -5.02393,4.19624 -3.56533,3.34422 -9.08939,6.55861 -18.33455,10.66866 -43.31127,31.29544 -68.13925,35.81459 -8.05642,0.34761 -16.13079,0.0866 -24.17884,-0.38173 -8.01278,-0.65562 -15.94532,-1.82336 -23.78629,-3.62761 -7.44788,-1.072 -14.95432,-2.01811 -21.6554,-5.74324 -7.09338,-3.68389 -14.68289,-6.3932 -21.38806,-10.79016 -7.40942,-5.26667 -13.74578,-11.76475 -21.31704,-16.82068 -6.83604,-4.92074 -13.52423,-10.05013 -21.91669,-11.99278 -7.37146,-1.83523 -14.74873,-2.7357 -22.3689,-2.20373 -9.06907,0.11353 -18.19944,0.23439 -27.11814,2.08109 -10.19861,2.36726 -19.78182,6.31637 -29.51092,10.1161 -7.19347,1.51545 -14.38887,2.846 -21.07718,6.0752 -7.31015,2.20574 -14.62558,4.41516 -21.84755,6.88805 -7.41974,2.57506 -14.97507,3.08707 -22.80319,3.00297 -9.62156,0.54649 -19.26651,1.45594 -28.57857,4.08194 -9.59692,2.68609 -19.06492,4.43575 -29.11369,3.60974 -8.60527,0.0158 -17.21594,0.0796 -25.81392,-0.34611 -9.01042,-0.55034 -18.07809,-1.3706 -26.72443,-4.13674 -6.59525,-2.2949 -13.18601,-4.51902 -19.54005,-7.43584 -7.95149,-2.59089 -15.92253,-4.80245 -24.33163,-5.31151 -8.32468,-1.43057 -16.29754,-4.07689 -24.54011,-5.84572 -12.64104,-1.46082 -25.370044,-0.83061 -38.071384,-0.78969 0,0 47.737614,-34.6834 47.737614,-34.6834 z"
     inkscape:connector-curvature="0" />
  <flowRoot
     xml:space="preserve"
     id="flowRoot4562"
     style="fill:black;fill-opacity:1;stroke:none;font-family:sans-serif;font-style:normal;font-weight:normal;font-size:40px;line-height:1.25;letter-spacing:0px;word-spacing:0px"><flowRegion
       id="flowRegion4564"><rect
         id="rect4566"
         width="671.28918"
         height="63.554008"
         x="79.442513"
         y="74.006966" /></flowRegion><flowPara
       id="flowPara4568" /></flowRoot>  <flowRoot
     xml:space="preserve"
     id="flowRoot4578"
     style="fill:black;fill-opacity:1;stroke:none;font-family:sans-serif;font-style:normal;font-weight:normal;font-size:40px;line-height:1.25;letter-spacing:0px;word-spacing:0px"><flowRegion
       id="flowRegion4580"><rect
         id="rect4582"
         width="79.442513"
         height="43.693378"
         x="877.83972"
         y="97.839722" /></flowRegion><flowPara
       id="flowPara4584" /></flowRoot>  <text
     xml:space="preserve"
     style="font-style:normal;font-weight:normal;font-size:40px;line-height:1.25;font-family:sans-serif;letter-spacing:0px;word-spacing:0px;fill:#000000;fill-opacity:1;stroke:none"
     x="115.19164"
     y="85.923347"
     id="text60"><tspan
       sodipodi:role="line"
       id="tspan58"
       x="115.19164"
       y="85.923347">First Month free when you sign up today!</tspan></text>
  <path
     style="fill:#ff6600;fill-opacity:0.6370344"
     id="path70"
     d="m 83.342225,332.20442 c 9.898535,-9.6762 20.351755,-18.69806 31.020745,-27.50414 23.01722,-19.41941 50.3723,-32.8966 76.8799,-46.91497 5.5133,-3.34413 11.87961,-3.91783 17.92556,-5.53433 1.21235,-0.32415 2.34928,-0.88337 3.52393,-1.32506 1.30606,-0.33464 2.61212,-0.66928 3.91818,-1.00393 8.12557,-1.89271 16.47344,-2.2935 24.78021,-2.54429 9.10416,-0.10628 18.20911,-0.0929 27.31371,-0.0847 9.27373,0.0535 18.54768,0.0403 27.82152,0.0345 8.76192,-0.43685 17.28221,0.11146 25.91515,1.48363 8.60715,2.39915 16.95899,5.13126 25.14601,8.72261 10.04186,4.59539 20.20877,8.90741 30.26169,13.48838 10.62921,5.80763 22.32534,9.16538 33.41258,13.94253 9.74517,3.10867 19.69176,5.88586 29.72463,7.95452 9.02127,1.71102 17.82929,4.12805 26.9724,5.24389 7.88259,2.34352 15.95631,3.64781 24.13389,4.32025 7.86778,0.50106 15.75616,0.48042 23.6362,0.48781 7.67137,-0.49611 15.6272,1.01999 23.12753,-0.85056 3.03589,-1.47861 6.86157,-0.85562 9.93645,-2.02126 2.35532,-0.89287 4.33548,-2.57232 6.57901,-3.71746 -15.79855,9.00712 -31.5971,18.01424 -47.39565,27.02135 6.63929,-4.15102 12.89107,-8.89318 19.62351,-12.88702 24.04759,-17.0469 48.25696,-28.7087 74.60973,-39.3412 6.07628,-5.06614 13.81108,-5.7383 20.94679,-8.21615 7.45943,-3.51201 15.12192,-6.80891 23.03778,-9.16846 8.72087,-1.81641 17.55755,-2.52339 26.35601,-3.88747 10.72619,-0.82954 21.21654,-2.71199 31.79954,-4.54685 8.54177,-1.45257 17.2032,-1.80199 25.84782,-1.98541 8.74491,-0.10985 17.49091,-0.0408 26.23631,-0.0326 8.45273,0.006 16.90545,0.006 25.35818,0.006 8.7539,0.53057 15.97842,5.32474 23.94237,8.38855 7.49795,2.94637 14.15632,7.49453 21.89743,9.80351 6.63145,3.78939 13.83265,5.9601 20.91136,8.67804 8.75032,2.69183 16.70811,7.32527 25.46929,9.94798 8.55733,3.60258 17.57306,5.46059 26.7644,6.39604 8.29296,-0.16048 16.25823,1.38309 24.38208,2.7551 7.79749,1.24453 15.69807,1.49152 23.57733,1.65195 7.92324,0.10702 15.84752,0.0779 23.77125,0.0672 8.47579,1.09933 15.35372,-2.39208 22.93449,-5.53408 8.88956,-4.86343 17.80856,-9.11746 27.27696,-12.7299 19.8252,-6.11759 46.7594,-23.1992 -36.42483,22.51005 -1.46654,0.80585 2.77852,-1.87212 4.08639,-2.91598 2.85267,-2.27683 5.04532,-4.6072 7.62578,-7.17947 3.70876,-3.92873 7.39486,-7.87027 11.18416,-11.72144 0,0 54.4596,-22.38489 54.4596,-22.38489 v 0 c -4.0517,3.57041 -7.7709,7.38693 -11.3029,11.48132 -3.2366,3.49115 -7.0284,8.92616 -11.15,11.3947 -25.4677,15.25319 -40.747,26.91969 -64.77669,35.19207 -9.33125,3.81602 -17.98649,8.96659 -27.33564,12.75538 -8.01061,2.96915 -15.70701,4.68048 -24.34529,3.84349 -7.95923,0.002 -15.92041,0.0211 -23.87705,-0.21286 -8.05362,-0.31351 -16.10781,-0.85333 -24.04614,-2.32659 -8.04004,-1.38306 -16.09483,-1.86787 -24.21417,-2.57389 -9.39028,-1.44076 -18.48792,-3.95483 -27.35907,-7.37615 -8.61824,-3.13913 -16.84416,-7.28373 -25.6045,-10.06692 -7.15355,-2.48866 -14.04751,-5.44735 -20.95468,-8.54165 -7.50863,-2.97378 -14.38987,-7.2714 -21.97574,-10.09653 -7.36616,-3.12215 -14.41099,-6.86641 -22.68045,-6.50636 -8.43509,-0.01 -16.87016,-0.0277 -25.30522,-0.0489 -8.7277,-0.0124 -17.45742,-0.0307 -26.18227,0.22745 -8.46384,0.34501 -16.91652,1.00323 -25.25242,2.58379 -10.57113,1.85168 -21.20799,2.95379 -31.83044,4.44942 -8.65655,1.38349 -17.54354,1.76058 -25.86205,4.75927 -7.76466,2.92565 -15.35351,6.3111 -23.17174,9.08156 -7.27814,1.97446 -13.85211,5.15109 -20.52307,8.62793 -21.22528,9.30052 -63.44357,27.8688 26.77114,-18.39816 -6.7733,3.94955 -13.27095,8.0398 -19.65992,12.63389 -25.9398,15.02607 -43.79261,31.98179 -71.49517,35.55385 -7.85286,0.30053 -15.71585,0.10469 -23.57305,0.1463 -7.99733,-0.0587 -16.011,-0.12572 -23.97308,-0.96288 -8.18604,-1.01044 -16.17489,-2.86713 -24.24235,-4.53338 -9.14212,-1.50895 -18.06737,-3.95865 -27.1686,-5.68101 -10.19534,-2.50726 -20.47275,-4.99496 -30.25432,-8.84185 -11.18406,-4.57816 -22.63867,-8.54804 -33.39426,-14.11193 -10.12035,-4.43062 -20.21922,-8.90884 -30.38212,-13.24089 -7.88229,-3.13997 -15.90554,-5.89055 -24.26066,-7.49768 -8.46383,-1.04096 -16.95621,-0.78667 -25.47174,-0.78922 -9.27507,-0.0191 -18.55017,-0.0559 -27.82527,-0.0359 -9.06304,-0.0151 -18.13226,-0.0774 -27.1887,0.324 -8.08815,0.46969 -16.18595,1.25871 -23.97756,3.6194 -8.31443,2.49731 -16.92328,4.14532 -24.44881,8.7622 -20.03768,10.64548 -7.59342,4.11174 40.96297,-24.09807 1.60841,-0.93444 -3.23421,1.84273 -4.79496,2.85475 -4.39052,2.84689 -8.89941,5.68252 -12.60331,9.40501 -10.90839,8.31791 -21.17764,17.37034 -31.11587,26.81387 0,0 -54.462205,22.55898 -54.462205,22.55898 z"
     inkscape:connector-curvature="0" />
</svg>
